<svg xmlns="http://www.w3.org/2000/svg" width="50" height="50"><rect width="100%" height="100%" fill="#2b2b31"/><path fill="#ecc94b" d="M25 3.95 22.3 9.2c-1.45 2.75-.95 6.15 1.25 8.35L25 19l1.45-1.45c2.15-2.2 2.65-5.6 1.25-8.35zm0 7.5c.85 0 1.5.7 1.5 1.5 0 .85-.65 1.5-1.5 1.5s-1.5-.7-1.5-1.5c0-.85.65-1.5 1.5-1.5m-13.1.45.75 5.6c.15 1.15 1 2.05 2.1 2.35l6.8 1.7-1.7-6.8c-.25-1.1-1.2-1.95-2.35-2.1zm26.2 0-5.6.75c-1.15.15-2.05 1-2.35 2.1l-1.7 6.8 6.8-1.7c1.1-.25 1.95-1.2 2.1-2.35zm-21.4 3.4c.75 0 1.4.6 1.4 1.4 0 .4-.15.75-.4 1s-.6.4-1 .4c-.75 0-1.4-.6-1.4-1.4 0-.35.15-.75.4-1s.6-.4 1-.4m16.55 0c.4 0 .75.15 1 .4s.4.6.4 1c0 .75-.6 1.4-1.4 1.4-.4 0-.75-.15-1-.4s-.4-.6-.4-1c0-.75.6-1.4 1.4-1.4m4.28 6.179a7.1 7.1 0 0 0-5.08 2.072L31 25l1.45 1.45c2.2 2.15 5.6 2.65 8.35 1.25l5.25-2.7-5.25-2.7a7.1 7.1 0 0 0-3.27-.821m-25.06.035a7.3 7.3 0 0 0-3.27.787L3.95 25l5.25 2.7c2.75 1.45 6.15.95 8.35-1.25L19 25l-1.45-1.45c-1.374-1.343-3.218-2.043-5.08-2.036m12.53.685c-.75 0-1.45.301-1.95.801s-.8 1.2-.8 1.95.3 1.45.8 1.95 1.2.8 1.95.8 1.45-.3 1.95-.8.8-1.2.8-1.95-.3-1.45-.8-1.95-1.2-.8-1.95-.8zm12 1.25c.85 0 1.5.65 1.5 1.5s-.7 1.5-1.5 1.5-1.5-.65-1.5-1.5.7-1.5 1.5-1.5M13 23.5c.8 0 1.5.65 1.5 1.5s-.7 1.5-1.5 1.5c-.85 0-1.5-.65-1.5-1.5s.7-1.5 1.5-1.5m8.55 4.95-6.8 1.7c-1.1.25-1.95 1.2-2.1 2.35l-.75 5.6 5.6-.75c1.15-.15 2.05-1 2.35-2.1zm6.9 0 1.7 6.8c.25 1.1 1.2 1.95 2.35 2.1l5.6.7-.75-5.6c-.15-1.15-1-2.05-2.1-2.35zM25 31l-1.45 1.45c-2.15 2.2-2.65 5.6-1.25 8.35l2.7 5.25 2.7-5.25c1.45-2.75.95-6.15-1.25-8.35zm8.3.85c.75 0 1.4.6 1.4 1.4 0 .4-.15.75-.4 1s-.6.4-1 .4c-.75 0-1.4-.6-1.4-1.4 0-.4.15-.75.4-1s.6-.4 1-.4m-16.55.05c.4 0 .75.15 1 .4s.4.6.4 1c0 .75-.6 1.4-1.4 1.4-.4 0-.75-.2-1-.4-.25-.25-.4-.6-.4-1 0-.75.6-1.4 1.4-1.4M25 35.5c.85 0 1.5.7 1.5 1.5 0 .85-.65 1.5-1.5 1.5s-1.5-.7-1.5-1.5.65-1.5 1.5-1.5"/><path fill="#f44034" d="M1 0c.5.9 1.45 1.5 2.55 1.5S5.6.9 6.1 0zm42.9 0c.5.9 1.45 1.5 2.55 1.5S48.5.9 49 0zM0 1v5.1c.9-.5 1.5-1.45 1.5-2.55S.9 1.5 0 1m50 0c-.9.5-1.5 1.45-1.5 2.55S49.1 5.6 50 6.1zM0 43.9V49c.9-.5 1.5-1.45 1.5-2.55S.9 44.4 0 43.9m50 0c-.9.5-1.5 1.45-1.5 2.55S49.1 48.5 50 49zM3.55 48.5c-1.1 0-2.05.6-2.55 1.5h5.1c-.5-.9-1.45-1.5-2.55-1.5m42.9 0c-1.1 0-2.05.6-2.55 1.5H49c-.5-.9-1.45-1.5-2.55-1.5"/><path fill="#00bdd6" d="M11.7 0A28 28 0 0 0 .05 11.65v1.45c1.3-2.8 3.1-5.4 5.4-7.65A27.6 27.6 0 0 1 13.15 0zm25.2.05c2.8 1.3 5.4 3.1 7.65 5.4a27.6 27.6 0 0 1 5.45 7.7V11.7A28 28 0 0 0 38.35.05zm-16.6.9a.55.55 0 0 0-.55.55.55.55 0 0 0 .55.55.55.55 0 0 0 .55-.55.55.55 0 0 0-.55-.55m9.4 0a.55.55 0 0 0-.55.55.55.55 0 0 0 .55.55.55.55 0 0 0 .55-.55.55.55 0 0 0-.55-.55M17.65 3.6a.55.55 0 0 0-.55.55.55.55 0 0 0 .55.55.55.55 0 0 0 .55-.55.55.55 0 0 0-.55-.55m14.7 0a.55.55 0 0 0-.55.55.55.55 0 0 0 .55.55.55.55 0 0 0 .55-.55.55.55 0 0 0-.55-.55m-17.4 2.65a.55.55 0 0 0-.55.55.55.55 0 0 0 .55.55.55.55 0 0 0 .55-.55.55.55 0 0 0-.55-.55m20.1 0a.55.55 0 0 0-.55.55.55.55 0 0 0 .55.55.55.55 0 0 0 .55-.55.55.55 0 0 0-.55-.55M12.3 8.9a.55.55 0 0 0-.55.55.55.55 0 0 0 .55.55.55.55 0 0 0 .55-.55.55.55 0 0 0-.55-.55m25.4 0a.55.55 0 0 0-.55.55.55.55 0 0 0 .55.55.55.55 0 0 0 .55-.55.55.55 0 0 0-.55-.55M9.45 11.75a.55.55 0 0 0-.55.55.55.55 0 0 0 .55.55.55.55 0 0 0 .55-.55.55.55 0 0 0-.55-.55m31.1 0a.55.55 0 0 0-.55.55.55.55 0 0 0 .55.55.55.55 0 0 0 .55-.55.55.55 0 0 0-.55-.55M6.8 14.4a.55.55 0 0 0-.55.55.55.55 0 0 0 .55.55.55.55 0 0 0 .55-.55.55.55 0 0 0-.55-.55m36.4 0a.55.55 0 0 0-.55.55.55.55 0 0 0 .55.55.55.55 0 0 0 .55-.55.55.55 0 0 0-.55-.55M4.15 17.05a.55.55 0 0 0-.55.55.55.55 0 0 0 .55.55.55.55 0 0 0 .55-.55.55.55 0 0 0-.55-.55m41.7 0a.55.55 0 0 0-.55.55.55.55 0 0 0 .55.55.55.55 0 0 0 .55-.55.55.55 0 0 0-.55-.55M1.5 19.75a.55.55 0 0 0-.55.55.55.55 0 0 0 .55.55.55.55 0 0 0 .55-.55.55.55 0 0 0-.55-.55m47 0a.55.55 0 0 0-.55.55.55.55 0 0 0 .55.55.55.55 0 0 0 .55-.55.55.55 0 0 0-.55-.55m-47 9.4a.55.55 0 0 0-.55.55.55.55 0 0 0 .55.55.55.55 0 0 0 .55-.55.55.55 0 0 0-.55-.55m47 0a.55.55 0 0 0-.55.55.55.55 0 0 0 .55.55.55.55 0 0 0 .55-.55.55.55 0 0 0-.55-.55M4.15 31.8a.55.55 0 0 0-.55.55.55.55 0 0 0 .55.55.55.55 0 0 0 .55-.55.55.55 0 0 0-.55-.55m41.7 0a.55.55 0 0 0-.55.55.55.55 0 0 0 .55.55.55.55 0 0 0 .55-.55.55.55 0 0 0-.55-.55M6.8 34.45a.55.55 0 0 0-.55.55.55.55 0 0 0 .55.55.55.55 0 0 0 .55-.55.55.55 0 0 0-.55-.55m36.4 0a.55.55 0 0 0-.55.55.55.55 0 0 0 .55.55.55.55 0 0 0 .55-.55.55.55 0 0 0-.55-.55M0 36.85v1.45a28 28 0 0 0 11.65 11.65h1.45c-2.8-1.3-5.4-3.15-7.65-5.4A27.6 27.6 0 0 1 0 36.85m49.95 0a25.6 25.6 0 0 1-5.4 7.7 27.6 27.6 0 0 1-7.7 5.45h1.45a28 28 0 0 0 11.65-11.65zm-40.5.3a.55.55 0 0 0-.55.55.55.55 0 0 0 .55.55.55.55 0 0 0 .55-.55.55.55 0 0 0-.55-.55m31.1 0a.55.55 0 0 0-.55.55.55.55 0 0 0 .55.55.55.55 0 0 0 .55-.55.55.55 0 0 0-.55-.55m-28.25 2.8a.55.55 0 0 0-.55.55.55.55 0 0 0 .55.55.55.55 0 0 0 .55-.55.55.55 0 0 0-.55-.55m25.4 0a.55.55 0 0 0-.55.55.55.55 0 0 0 .55.55.55.55 0 0 0 .55-.55.55.55 0 0 0-.55-.55m-22.75 2.7a.55.55 0 0 0-.55.55.55.55 0 0 0 .55.55.55.55 0 0 0 .55-.55.55.55 0 0 0-.55-.55m20.1 0a.55.55 0 0 0-.55.55.55.55 0 0 0 .55.55.55.55 0 0 0 .55-.55.55.55 0 0 0-.55-.55m-17.4 2.65a.55.55 0 0 0-.55.55.55.55 0 0 0 .55.55.55.55 0 0 0 .55-.55.55.55 0 0 0-.55-.55m14.7 0a.55.55 0 0 0-.55.55.55.55 0 0 0 .55.55.55.55 0 0 0 .55-.55.55.55 0 0 0-.55-.55M20.3 47.95a.55.55 0 0 0-.55.55.55.55 0 0 0 .55.55.55.55 0 0 0 .55-.55.55.55 0 0 0-.55-.55m9.4 0a.55.55 0 0 0-.55.55.55.55 0 0 0 .55.55.55.55 0 0 0 .55-.55.55.55 0 0 0-.55-.55"/></svg>